<svg xmlns="http://www.w3.org/2000/svg" viewBox="0 0 512 512">

    <symbol id="icon-cancel" viewBox="0 0 512 512">
        <path fill="currentColor" d="M256 0C155.334-1.398 58.25 63.303 20.117 156.352-19.693 247.762.905 361.315 70.69 432.625c67.143 72.262 177.761 98.626 270.384 64.9 96.006-32.613 166.79-126.924 170.594-228.351 6.373-98.6-50.777-197.155-139.122-241.168C336.655 9.562 296.343-.061 256 0Zm0 64c88.628-1.733 171.814 66.235 188.1 153.306 18.716 83.749-26.994 175.824-104.86 211.76-76.906 38.581-177.828 16.433-231.396-50.937-57.05-66.635-58.32-172.679-2.893-240.667C140.606 91.538 197.815 63.564 256 64Zm-86 64c-20.601 3.293-50.541 29.335-37.843 51.06l77.01 76.976-78.033 78.001c-9.49 22.789 21.005 51.411 43.564 49.05 28.04-25.613 54.052-53.682 81.302-80.252l78.033 78.033c22.79 9.489 51.414-21.005 49.05-43.565-25.613-28.03-53.68-54.03-80.25-81.27l78.033-77.999c9.493-22.784-21.014-51.388-43.564-49.016-28.04 25.602-54.052 53.658-81.302 80.216l-78.033-78-3.644-2.428-4.324-.804z"/>
    </symbol>

    <symbol id="icon-suspect" viewBox="0 0 512 512">
        <path fill="currentColor" transform="matrix(21.333 0 0 21.333 4.1719e-6 .00012134)" d="m-1.9556e-7 2.8914h9.4687c-1.6727 0.73809-2.7118 2.4235-3.1846 4.1299h-6.2841c-0.40488 0.75892-0.57276 1.3925 0.45868 1.1472h5.807c-0.13996 1.5815 0.90437 2.9048 1.7518 4.1299h-8.0175c-0.40492 0.75898-0.57282 1.3925 0.45868 1.1472h6.9909c-1.9137 0.5832-3.4701 2.1998-3.9911 4.1299h-3.4585c-0.14305 0.52334-0.85103 1.4936 0.25083 1.1476 0.96558 0.10355 2.3474-0.21286 3.0433 0.16924-7.02e-5 1.7025 1.591e-4 3.405 7.7e-6 5.1074h17.377c0.0032-1.7591-0.0064-3.5183 0.0047-5.2774 1.1082 4.25e-4 2.2164 1.21e-4 3.3247 2.18e-4 0.40422-0.75899 0.57285-1.3925-0.45868-1.1472h-3.0331c-0.42236-1.9909-2.1008-3.5501-4.0106-4.1299h7.5024c0.40422-0.75898 0.57284-1.3925-0.45868-1.1472h-7.7c1.322-0.95676 1.6062-2.6649 2.0351-4.1299h6.1235c0.40422-0.75899 0.57285-1.3925-0.45868-1.1472h-5.8954c-0.24876-1.7761-1.5254-3.2577-3.0435-4.1299h9.3976c0.40422-0.75899 0.57285-1.3925-0.45868-1.1472h-23.541c-0.14262 0.26139-0.76654 1.3197 0 1.1473zm6.8141 15.088h10.371v4.2986h-10.371l-1.5e-6 -4.2986z"/>
    </symbol>

    <symbol id="icon-pushpin" viewBox="0 0 512 512">
        <path fill="currentColor" d="m149.3 16.655c-20.501-0.29461-23.456 21.767-21.86 37.465-3.3134 17.168 11.51 32.679 28.953 29.155h32.463v187.97c-44.051 12.188-88.777 38.625-106.73 82.672h347.73c-17.948-44.047-62.674-70.484-106.72-82.672v-187.97c16.002-0.73494 32.415 1.7028 48.08-1.7126 17.634-7.3623 12.597-27.974 13.335-43.048 0.29434-20.501-21.767-23.456-37.465-21.86h-197.79z"/>
        <path fill="currentColor" d="m220.5 375.89c10.477 78.099 20.953 156.2 31.43 234.3v-234.3h-31.43zm31.43 234.3c9.7e-4 0.0123 9.4e-4 -0.0123 0 0zm5.2e-4 -3e-3c10.477-78.098 20.953-156.2 31.43-234.29h-31.43v234.29z" />
    </symbol>

    <symbol id="icon-phone" viewBox="0 0 512 512">
        <path fill="currentColor" d="M134.5 30.5v451h243v-451h-243zm-44.41.5c-43.64 41-73.2 116-73.2 203.7 0 87.8 29.87 164 73.83 204.4C61.5 392.4 42.5 318.5 42.5 234.7 42.5 152 61.13 78 90.09 31zm331.81 0c28.9 47 47.6 121.1 47.6 203.8 0 83.8-19 157.7-48.2 204.3 43.9-40.3 73.8-116.5 73.8-204.3 0-87.7-29.6-162.8-73.2-203.8zM235.2 50.5h41.6a8 8 0 0 1 0 16h-41.6a8 8 0 0 1 0-16zM126 80c-37.75 24.9-64.74 85-64.74 154.7 0 70.4 27.11 130.3 65.14 154.8-25.5-30.3-42.84-88.2-42.84-154.8 0-66.4 17.14-124.8 42.44-154.7zm260 0c25.3 30 42.4 88.4 42.4 154.8 0 66.6-17.3 124.5-42.8 154.8 38-24.5 65.1-84.5 65.1-154.8 0-69.7-27-129.8-64.7-154.8zm-236.5 3.5h211v343h-211v-343zm105.3 349a19.26 19.26 0 0 1 20 19.3 19.26 19.26 0 0 1-19.3 19.2 19.26 19.26 0 0 1-.7-38.5z"/>
    </symbol>

    <symbol id="icon-notebook" viewBox="0 0 512 512">
        <path fill="currentColor" d="m84.276 1.2e-4c-17.398 0-31.404 14.006-31.404 31.404v37.978h-43.027c-4.9707 0-8.9726 4.0018-8.9726 8.9726v23.328c0 4.9707 4.0018 8.9726 8.9726 8.9726h43.027v69.381h-43.027c-4.9707 0-8.9726 4.0018-8.9726 8.9726v23.328c0 4.9707 4.0018 8.9726 8.9726 8.9726h43.027v69.381h-44.771c-4.9707 0-8.9726 4.0018-8.9726 8.9726v23.328c0 4.9708 4.0018 8.9726 8.9726 8.9726h44.771v69.381h-43.027c-4.9707 0-8.9726 4.0013-8.9726 8.9721v23.329c0 4.9707 4.0018 8.9721 8.9726 8.9721h43.027v37.978c0 17.398 14.006 31.403 31.404 31.403h397.19c17.398 0 31.403-14.006 31.403-31.403v-449.19c0-17.398-14.006-31.404-31.403-31.404zm289.77 27.211c1.4781 1e-3 3.0212 0.24859 4.5547 0.76947l32.662 11.094c6.1342 2.0835 9.7253 7.7282 8.0512 12.657l-17.491 51.498-97.834 288.04-3.022 8.8971-42.606-14.471 42.542 14.474-60.816 89.158 6.1201-107.76-0.046-0.0155 100.86-296.94 17.491-51.497c1.2556-3.6966 5.1052-5.9089 9.5395-5.9051zm6.7184 5.1635c-18.913 1.7225-16.071 30.057-24.314 43.698-33.349 98.216-70.25 206.68-103.53 304.92-0.015 0.13534-0.029 0.27019-0.043 0.40515l42.279 14.36c0.3014-0.49191 0.604-0.98735 0.908-1.4862 34.275-99.518 81.287-234.62 115.37-342.01 0.7528-7.2615-3.6236-10.771-9.4345-13.062-5.811-2.2905-13.056-3.3619-18.042-5.7464zm-263.33 30.026a24.95 25 0 0 1 24.95 25 24.95 25 0 0 1-24.95 25 24.95 25 0 0 1-24.95-25 24.95 25 0 0 1 24.95-25zm0 112.4a24.95 25 0 0 1 24.95 25 24.95 25 0 0 1-24.95 25 24.95 25 0 0 1-24.95-25 24.95 25 0 0 1 24.95-25zm0 112.4a24.95 25 0 0 1 24.95 25 24.95 25 0 0 1-24.95 25 24.95 25 0 0 1-24.95-25 24.95 25 0 0 1 24.95-25zm0 112.4a24.95 25 0 0 1 24.95 25 24.95 25 0 0 1-24.95 25 24.95 25 0 0 1-24.95-25 24.95 25 0 0 1 24.95-25zm132.05 43.52c-0.402 8.0538-0.9958 16.558-2.0304 26.096 4.9388-8.1055 9.5381-15.276 13.988-22.035z"/>
    </symbol>

    <symbol id="icon-mappin" viewBox="0 0 512 512">
        <path fill="currentColor" d="M256 17.108c-75.73 0-137.122 61.392-137.122 137.122.055 23.25 6.022 46.107 11.58 56.262L256 494.892l119.982-274.244h-.063a137.131 137.131 0 0 0 17.202-66.418C393.122 78.5 331.73 17.108 256 17.108zm0 68.56a68.56 68.56 0 0 1 68.56 68.562A68.56 68.56 0 0 1 256 222.79a68.56 68.56 0 0 1-68.56-68.56A68.56 68.56 0 0 1 256 85.67z"/>
    </symbol>

    <symbol id="icon-gear" viewBox="0 0 512 512">
        <path fill="currentColor" d="m234.88 18.78c-26.087 2.367-51.557 8.56-74.875 18.782 15.37 32.763 14.222 66.706-6.72 82.407-20.835 15.617-54.055 7.965-81.124-15.69-16.246 19.452-29.336 41.36-38.875 65.626 33.83 12.333 56.635 37.665 52.94 63.5-3.698 25.835-32.697 43.74-68.626 46.094 2.338 25.796 8.91 50.778 18.937 73.875 17.81-8.182 35.793-11.09 51.095-8.938 13.032 1.87 23.927 7.015 31.156 16.657 15.817 21.097 7.603 54.713-16.78 81.97 19.516 16.35 42.216 29.444 66.594 39.03 12.33-33.828 37.655-56.634 63.5-52.938 25.844 3.697 43.74 32.696 46.094 68.625 26.087-2.365 51.557-8.555 74.875-18.78-15.766-32.997-14.26-67.588 6.843-83.406 9.64-7.23 22.568-9.022 35.594-7.125 15.112 2.16 31.19 10.25 45.563 22.78 16.088-19.345 29.4-41.51 38.875-65.594-33.83-12.332-56.635-37.653-52.938-63.5 3.697-25.846 32.665-43.772 68.594-46.125-2.36-25.944-8.774-50.663-18.906-73.874-32.612 15.117-66.66 13.145-82.282-7.687-15.696-20.944-7.252-53.86 16.688-81-19.52-16.352-42.248-29.447-66.625-39.032-12.332 33.828-37.657 56.66-63.5 52.968-25.846-3.693-43.744-32.696-46.095-68.625zm21.656 95.126c79.626 0 144.38 64.752 144.38 144.38 0 79.626-64.75 144.38-144.38 144.38-79.624 0-144.37-64.75-144.37-144.38 0-79.624 64.75-144.37 144.38-144.37zm0 18.688c-69.524 0-125.69 56.162-125.69 125.69 0 69.526 56.162 125.69 125.69 125.69 69.526 0 125.69-56.164 125.69-125.69 0-69.522-56.164-125.69-125.69-125.69zm0.033 15.125c61.094 0 110.62 49.53 110.62 110.62 0 61.095-49.53 110.62-110.62 110.62s-110.62-49.53-110.62-110.63c0-61.095 49.53-110.62 110.62-110.62z"/>
    </symbol>

    <symbol id="icon-floorplans" viewBox="0 0 512 512">
        <g transform="matrix(21.333 0 0 21.333 4e-6 4e-6)">
            <path fill="currentColor" d="m0 12v-12h9.3978c1.3916 1.0469 2.7832 2.0939 4.1747 3.1408-0.34527 0.57516-0.76764 1.101-1.1598 1.6446-1.2526-0.93811-2.5051-1.8762-3.7577-2.8143h-6.684v20.058h8v-8h-3.0145v-1.971h8v1.971h-3.0145v8h10.087v-8h-3.0145v-1.971h3.0145v-10.087h-7.0725v-1.971h9.0435v24h-24v-12z" stroke-width=".43821" />
        </g>
    </symbol>

    <symbol id="icon-fingerprint" viewBox="0 0 512 512">
        <path fill="currentColor" d="m209.87 503.32c24.276-4.162 92.773-51.726 118.63-82.376 98.95-117.29-22.573-288.53-162.77-229.36-53.635 22.637-100.95 90.825-71.333 102.79 9.0796 3.6684 16.506-0.79769 22.924-13.787 51.752-104.73 197.19-85.29 213.77 28.57 8.9258 61.287-30.448 113.69-119.34 158.84-13.249 6.7286-15.739 8.3612-17.623 11.557-6.4252 10.895 3.4886 25.87 15.737 23.77zm-87.642-35.089c64.051 7.7914 160.69-54.218 176.65-113.35 29.914-110.81-116.26-162.63-159.41-56.511-11.905 29.274-35.314 42.063-59.273 32.382-71.542-28.905 13.919-159.17 116.16-177.06 184.45-32.27 270.38 222.66 109.35 324.4-22.074 13.947-16.027 40.8 7.2679 32.277 63.108-23.089 116.75-123.22 109.73-204.81-18.75-217.81-310.84-254.4-393.6-49.309-41.292 102.33 93.501 155.94 139.62 55.525 32.794-71.395 123.48-36.697 98.284 37.604-15.156 44.685-99.148 95.761-142.65 86.748-12.561-2.6024-18.9-0.12956-22.499 8.7774-4.8155 11.919 3.3394 21.26 20.368 23.332zm-40.114-48.731c57.528 10.356 129.56-31.731 154.76-90.416 11.384-26.517-16.196-38.27-29.151-12.422-25.506 50.894-81.639 82.445-124.6 70.037-12.636-3.6496-18.719-1.7048-23.162 7.4052-5.8714 12.039 2.7304 21.899 22.156 25.396zm378.9-134.33c21.042 0.71201 20.675-23.588-1.0978-72.695-61.689-139.13-225.31-195.09-359.48-122.94-21.023 11.306-27.787 16.476-29.822 22.791-4.95 15.359 10.851 26.488 24.673 17.376 135.32-89.205 310.51-21.008 349.16 135.92 3.5166 14.279 7.7324 19.254 16.568 19.553zm14.451-104.35c15.131-0.21312 19.596-13.31 10.469-30.71-64.489-122.95-203.39-179.07-335.19-135.43-21.298 7.0528-26.104 24.992-8.5909 32.068 5.9377 2.399 5.6375 2.4446 26.653-4.0481 109.81-33.926 229.24 14.325 284.67 115 9.9409 18.058 10.462 18.785 15.113 21.07 2.3291 1.1442 5.4258 2.0637 6.8816 2.0432z"/>
    </symbol>

    <symbol id="icon-clock" viewBox="0 0 512 512">
        <path fill="currentColor" d="m256 1.19e-4a256 256 0 0 0-256 256 256 256 0 0 0 256 256 256 256 0 0 0 256-256 256 256 0 0 0-256-256zm0 50a206 206 0 0 1 206 206 206 206 0 0 1-206 206 206 206 0 0 1-206-206 206 206 0 0 1 206-206z"/>
        <path fill="currentColor" d="m259.75 65.275c-13.421 0-24.225 15.307-24.225 34.32v147.37c0 0.29266 0.00214 0.58453 0.00723 0.8754-2.4775 9.9279-0.06816 20.856 7.3928 28.996l75.901 82.804c11.826 12.902 31.734 13.768 44.636 1.9415s13.768-31.734 1.9415-44.636l-75.901-82.804c-1.6916-1.8454-3.5487-3.4446-5.5268-4.7956v-129.75c0-19.013-10.804-34.32-24.225-34.32z"/>
    </symbol>

    <symbol id="icon-casefile" viewBox="0 0 512 512">
        <path fill="currentColor" d="m10.219 35.477c-5.5969 0-10.103 4.5063-10.103 10.103v58.047c0 0.70519 0.07151 1.393 0.20774 2.0567l-0.30127 1.0335h0.37414v91.521c-0.24206 1.0918-0.37414 2.2731-0.37414 3.5078v256.02c0 0.33776 0.01014 0.67139 0.02946 1.0004-0.65421 9.8005 9.7555 17.758 20.005 17.758h408.2c10.929 0 17.415-9.0457 19.727-19.727l63.733-294.39c1.6263-7.5121-4.5773-14.48-11.497-17.796l1.1906-15.411c0.44033-5.6996-4.8828-11.183-10.599-11.161l-48.877 0.18709c-0.3173 1e-3 -0.72473-0.21976-1.0346-0.19196l-0.0935-13.984c-0.0374-5.5968-4.5058-10.103-10.103-10.103h-261.1v-48.37c0-5.5969-4.5058-10.103-10.103-10.103zm38.837 86.252h385.56c-4e-3 3e-3 -7e-3 7e-3 -0.0109 0.0103h54.998c4.9392 0 8.5077 4.0038 7.9897 8.9157l-1.3229 12.544c-2.1097-0.6767-2.075-0.51626-4.2819-0.51626h-408.2c-10.929 0-17.415 9.0457-19.727 19.727l-51.871 239.59 6.35-111.56 10.785-148.99c2.3124-10.681 8.7982-19.727 19.727-19.727z"/>
    </symbol>

    <symbol id="icon-calendar" viewBox="0 0 512 512">
        <path fill="currentColor" d="m93.091-5e-6c-2.221 6.6474 4.8683 22.605-4.3445 22.261h-88.746v489.74h512v-489.74h-93.091c-2.221-6.6474 4.8683-22.605-4.3445-22.261h-42.201c-2.221 6.6474 4.8683 22.605-4.3445 22.261h-228.38c-2.221-6.6474 4.8683-22.605-4.3445-22.261h-42.201zm-46.545 66.783h46.545c2.221 6.6474-4.8683 22.605 4.3445 22.261h42.201c2.221-6.6474-4.8683-22.605 4.3445-22.261h228.38c2.221 6.6474-4.8683 22.605 4.3445 22.261h42.201c2.221-6.6474-4.8683-22.605 4.3445-22.261h42.201v44.522h-418.91v-44.522zm0 89.043h418.91v311.65h-418.91v-311.65zm139.64 44.522v44.522h46.545v-44.522h-46.545zm93.091 0v44.522h46.545v-44.522h-46.545zm93.091 0v44.522h46.545v-44.522h-46.545zm-279.27 89.043v44.522h46.545v-44.522h-46.545zm93.091 0v44.522h46.545v-44.522h-46.545zm93.091 0v44.522h46.545v-44.522h-46.545zm93.091 0v44.522h46.545v-44.522h-46.545zm-279.27 89.043v44.522h46.545v-44.522h-46.545zm93.091 0v44.522h46.545v-44.522h-46.545zm93.091 0v44.522h46.545v-44.522h-46.545z"/>
    </symbol>

    <symbol id="icon-facebook" viewBox="0 0 14.095 14.095">
        <path fill="currentColor" d="M1.07.328a.741.741 0 0 0-.742.742v11.955c0 .41.332.742.742.742h6.436V8.564H5.754V6.535h1.752V5.039c0-1.736 1.06-2.68 2.609-2.68.742 0 1.379.055 1.564.08v1.813h-1.073c-.843 0-1.006.4-1.006.988v1.295h2.01l-.263 2.029H9.6v5.203h3.425c.41 0 .742-.332.742-.742V1.07a.741.741 0 0 0-.742-.742z"/>
    </symbol>

    <symbol id="icon-instagram" viewBox="0 0 14.095 14.095">
        <path fill="currentColor" d="M4.168.226A3.963 3.963 0 0 0 .21 4.186V9.91a3.962 3.962 0 0 0 3.958 3.959h5.759a3.962 3.962 0 0 0 3.958-3.959V4.186A3.963 3.963 0 0 0 9.927.226zm0 1.173h5.759a2.768 2.768 0 0 1 2.787 2.787V9.91a2.767 2.767 0 0 1-2.787 2.786h-5.76A2.766 2.766 0 0 1 1.383 9.91V4.186a2.767 2.767 0 0 1 2.786-2.787zm6.55 1.173a.82.82 0 1 0 0 1.64.82.82 0 0 0 0-1.64zm-3.67.963a3.521 3.521 0 0 0-3.513 3.513 3.521 3.521 0 0 0 3.512 3.512 3.522 3.522 0 0 0 3.514-3.512 3.522 3.522 0 0 0-3.514-3.513zm0 1.173c1.299 0 2.34 1.04 2.34 2.34 0 1.299-1.041 2.34-2.34 2.34a2.33 2.33 0 0 1-2.34-2.34c0-1.3 1.04-2.34 2.34-2.34z"/>
    </symbol>

    <symbol id="icon-youtube" viewBox="0 0 16 12">
        <path fill="currentColor" d="M15.485 1.657a1.996 1.996 0 0 0-1.408-1.411C13.257.062 8 .003 8 .003s-5.257.059-6.077.243A1.996 1.996 0 0 0 .515 1.657C.324 2.477.265 4.5.265 6c0 1.5.059 3.523.25 4.343a1.996 1.996 0 0 0 1.41 1.411c.82.184 6.077.243 6.077.243s5.257-.059 6.077-.243a1.996 1.996 0 0 0 1.41-1.411c.191-.82.25-2.843.25-4.343s-.059-3.523-.25-4.343zm-9.352 6.136V4.207L10.334 6l-4.199 1.793z"/>
    </symbol>

</svg>
