<svg xmlns="http://www.w3.org/2000/svg">
  <symbol id="icon-cancel" viewBox="0 0 512 512">
    <path fill="currentColor" d="M256 0C155.334-1.398 58.25 63.303 20.117 156.352-19.693 247.762.905 361.315 70.69 432.625c67.143 72.262 177.761 98.626 270.384 64.9 96.006-32.613 166.79-126.924 170.594-228.351 6.373-98.6-50.777-197.155-139.122-241.168C336.655 9.562 296.343-.061 256 0Zm0 64c88.628-1.733 171.814 66.235 188.1 153.306 18.716 83.749-26.994 175.824-104.86 211.76-76.906 38.581-177.828 16.433-231.396-50.937-57.05-66.635-58.32-172.679-2.893-240.667C140.606 91.538 197.815 63.564 256 64Zm-86 64c-20.601 3.293-50.541 29.335-37.843 51.06l77.01 76.976-78.033 78.001c-9.49 22.789 21.005 51.411 43.564 49.05 28.04-25.613 54.052-53.682 81.302-80.252l78.033 78.033c22.79 9.489 51.414-21.005 49.05-43.565-25.613-28.03-53.68-54.03-80.25-81.27l78.033-77.999c9.493-22.784-21.014-51.388-43.564-49.016-28.04 25.602-54.052 53.658-81.302 80.216l-78.033-78-3.644-2.428-4.324-.804z"/>
  </symbol>

  <symbol id="icon-mindmap" viewBox="0 0 512 512">
    <path fill="currentColor" d="M193.21 0v125.17h45.71c-6.52 11.295-15.665 24.976-26.117 34.404-19.535 17.62-48.925 31.373-54.364 33.841H96.605v125.17h51.278c-6.17 11.963-17.77 32.053-31.685 44.605-10.347 9.332-23.457 17.58-34.31 23.64H0V512h125.58V386.83h-6.664c3.665-2.773 7.261-5.708 10.676-8.788 14.102-12.72 25.07-29.631 32.181-42.515 6.857 13.045 17.443 29.905 31.425 42.515a195.326 195.326 0 0 0 10.489 8.788H193.21V512h125.58V386.83H239c-9.883-6.044-21.998-14.25-32.408-23.64-13.677-12.336-24.752-32.438-30.672-44.605h46.265v-125.17h-21.46c8.538-5.396 17.497-11.796 25.472-18.99 14.102-12.72 25.07-29.63 32.181-42.514 6.857 13.045 17.444 29.904 31.425 42.515 7.947 7.168 16.542 13.58 24.566 18.99h-24.554v125.17h62.725c5.925 12.99 18.402 36.742 36.683 53.23 6.08 5.485 12.539 10.526 18.832 15.014H386.42V512H512V386.83h-66.312c-10.432-5.801-28.437-16.664-43.07-29.863-11.541-10.41-21.23-26.347-27.532-38.382h40.309v-125.17h-61.697c-5.697-2.91-31.07-16.316-50.5-33.84-10.309-9.298-19.139-23.007-25.398-34.405h40.99V0H193.21z"/></svg>
  </symbol>
</svg>
