<svg xmlns="http://www.w3.org/2000/svg" viewBox="0 0 512 512">
  <symbol id="icon-cancel" viewBox="0 0 512 512">
    <path fill="currentColor" d="M256 0C155.334-1.398 58.25 63.303 20.117 156.352-19.693 247.762.905 361.315 70.69 432.625c67.143 72.262 177.761 98.626 270.384 64.9 96.006-32.613 166.79-126.924 170.594-228.351 6.373-98.6-50.777-197.155-139.122-241.168C336.655 9.562 296.343-.061 256 0Zm0 64c88.628-1.733 171.814 66.235 188.1 153.306 18.716 83.749-26.994 175.824-104.86 211.76-76.906 38.581-177.828 16.433-231.396-50.937-57.05-66.635-58.32-172.679-2.893-240.667C140.606 91.538 197.815 63.564 256 64Zm-86 64c-20.601 3.293-50.541 29.335-37.843 51.06l77.01 76.976-78.033 78.001c-9.49 22.789 21.005 51.411 43.564 49.05 28.04-25.613 54.052-53.682 81.302-80.252l78.033 78.033c22.79 9.489 51.414-21.005 49.05-43.565-25.613-28.03-53.68-54.03-80.25-81.27l78.033-77.999c9.493-22.784-21.014-51.388-43.564-49.016-28.04 25.602-54.052 53.658-81.302 80.216l-78.033-78-3.644-2.428-4.324-.804z" />
  </symbol>
</svg>
